<?xml version="1.0" standalone="no"?>
<!DOCTYPE svg PUBLIC "-//W3C//DTD SVG 20010904//EN"
 "http://www.w3.org/TR/2001/REC-SVG-20010904/DTD/svg10.dtd">
<svg version="1.0" xmlns="http://www.w3.org/2000/svg"
 width="200.000000pt" height="200.000000pt" viewBox="0 0 200.000000 200.000000"
 preserveAspectRatio="xMidYMid meet">

<g transform="translate(0.000000,200.000000) scale(0.100000,-0.100000)"
fill="#000000" stroke="none">
<path d="M0 1000 l0 -1000 1000 0 1000 0 0 1000 0 1000 -1000 0 -1000 0 0
-1000z m1353 563 c123 -57 209 -155 241 -275 15 -54 17 -102 14 -333 l-3 -271
-34 -69 c-44 -89 -113 -157 -199 -198 l-67 -32 -453 -3 -453 -3 3 458 3 458
28 56 c52 108 135 180 252 221 44 16 84 18 335 16 271 -3 287 -4 333 -25z"/>
<path d="M693 1459 c-60 -23 -123 -80 -155 -141 -23 -42 -23 -48 -26 -435 l-3
-393 374 0 c438 0 439 0 528 89 86 87 91 112 87 428 -3 249 -4 260 -27 303
-32 61 -76 107 -136 138 l-50 27 -270 2 c-250 2 -274 1 -322 -18z m137 -264
l0 -95 27 17 c37 24 118 23 168 -3 25 -13 51 -39 69 -68 29 -46 30 -51 34
-207 l5 -160 -59 3 -59 3 2 120 c1 66 -2 137 -8 157 -19 72 -97 92 -150 39
l-29 -29 0 -146 0 -146 -55 0 -55 0 0 305 0 305 55 0 55 0 0 -95z m460 -210
l0 -305 -55 0 -55 0 0 305 0 305 55 0 55 0 0 -305z"/>
</g>
</svg>
